<mxfile host="app.diagrams.net" agent="Mozilla/5.0 (Macintosh; Intel Mac OS X 10_15_7) AppleWebKit/537.36 (KHTML, like Gecko) Chrome/133.0.0.0 Safari/537.36" version="26.0.14" pages="3">
  <diagram id="rXIQhjPG7FAbDLPgB_gW" name="team">
    <mxGraphModel dx="2533" dy="2222" grid="1" gridSize="10" guides="1" tooltips="1" connect="1" arrows="1" fold="1" page="1" pageScale="1" pageWidth="850" pageHeight="1100" math="0" shadow="0">
      <root>
        <mxCell id="0" />
        <mxCell id="1" parent="0" />
        <mxCell id="erJEm5I90C8Fni9JRruV-2" value="User Experience - Verticals" style="rounded=1;whiteSpace=wrap;html=1;dashed=1;dashPattern=8 8;fillColor=#60a917;fontColor=#0D0D0D;strokeColor=#2D7600;opacity=30;" parent="1" vertex="1">
          <mxGeometry x="190" y="-100" width="440" height="40" as="geometry" />
        </mxCell>
        <mxCell id="Aynom5pPyhfbIul4iq7L-8" value="" style="rounded=0;orthogonalLoop=1;jettySize=auto;html=1;exitX=0.5;exitY=0;exitDx=0;exitDy=0;endArrow=none;startFill=0;entryX=0.5;entryY=1;entryDx=0;entryDy=0;" parent="1" source="Aynom5pPyhfbIul4iq7L-2" target="APIBFzFLJotERB8yClOZ-20" edge="1">
          <mxGeometry relative="1" as="geometry">
            <mxPoint x="145.0322580645162" y="170" as="sourcePoint" />
          </mxGeometry>
        </mxCell>
        <mxCell id="Aynom5pPyhfbIul4iq7L-9" value="Vertical Slice" style="edgeLabel;html=1;align=center;verticalAlign=middle;resizable=0;points=[];" parent="Aynom5pPyhfbIul4iq7L-8" vertex="1" connectable="0">
          <mxGeometry x="-0.1523" relative="1" as="geometry">
            <mxPoint as="offset" />
          </mxGeometry>
        </mxCell>
        <mxCell id="APIBFzFLJotERB8yClOZ-5" value="" style="rounded=0;orthogonalLoop=1;jettySize=auto;html=1;exitX=0.5;exitY=0;exitDx=0;exitDy=0;endArrow=none;startFill=0;entryX=0.5;entryY=1;entryDx=0;entryDy=0;" edge="1" parent="1" target="APIBFzFLJotERB8yClOZ-20">
          <mxGeometry relative="1" as="geometry">
            <mxPoint x="410" y="200" as="sourcePoint" />
            <mxPoint x="370" y="110" as="targetPoint" />
          </mxGeometry>
        </mxCell>
        <mxCell id="APIBFzFLJotERB8yClOZ-6" value="Vertical Slice" style="edgeLabel;html=1;align=center;verticalAlign=middle;resizable=0;points=[];" vertex="1" connectable="0" parent="APIBFzFLJotERB8yClOZ-5">
          <mxGeometry x="-0.1523" relative="1" as="geometry">
            <mxPoint as="offset" />
          </mxGeometry>
        </mxCell>
        <mxCell id="APIBFzFLJotERB8yClOZ-12" value="" style="rounded=0;orthogonalLoop=1;jettySize=auto;html=1;exitX=0.5;exitY=0;exitDx=0;exitDy=0;endArrow=none;startFill=0;entryX=0.5;entryY=1;entryDx=0;entryDy=0;" edge="1" parent="1" target="APIBFzFLJotERB8yClOZ-20">
          <mxGeometry relative="1" as="geometry">
            <mxPoint x="615" y="200" as="sourcePoint" />
            <mxPoint x="728" y="170" as="targetPoint" />
          </mxGeometry>
        </mxCell>
        <mxCell id="APIBFzFLJotERB8yClOZ-13" value="Vertical Slice" style="edgeLabel;html=1;align=center;verticalAlign=middle;resizable=0;points=[];" vertex="1" connectable="0" parent="APIBFzFLJotERB8yClOZ-12">
          <mxGeometry x="-0.1523" relative="1" as="geometry">
            <mxPoint as="offset" />
          </mxGeometry>
        </mxCell>
        <mxCell id="APIBFzFLJotERB8yClOZ-19" value="" style="group" vertex="1" connectable="0" parent="1">
          <mxGeometry x="285" y="-20" width="250" height="120" as="geometry" />
        </mxCell>
        <mxCell id="APIBFzFLJotERB8yClOZ-58" value="" style="group" vertex="1" connectable="0" parent="APIBFzFLJotERB8yClOZ-19">
          <mxGeometry width="250.00000000000003" height="120" as="geometry" />
        </mxCell>
        <mxCell id="APIBFzFLJotERB8yClOZ-20" value="" style="rounded=1;whiteSpace=wrap;html=1;" vertex="1" parent="APIBFzFLJotERB8yClOZ-58">
          <mxGeometry width="250.00000000000003" height="120" as="geometry" />
        </mxCell>
        <mxCell id="APIBFzFLJotERB8yClOZ-21" value="Frontend Tech: Single-SPA, React&amp;nbsp;" style="rounded=1;whiteSpace=wrap;html=1;" vertex="1" parent="APIBFzFLJotERB8yClOZ-58">
          <mxGeometry x="19.230769230769234" y="60" width="211.53846153846155" height="40" as="geometry" />
        </mxCell>
        <mxCell id="APIBFzFLJotERB8yClOZ-22" value="Team: Shell/Container + Design system&amp;nbsp;" style="rounded=1;whiteSpace=wrap;html=1;" vertex="1" parent="APIBFzFLJotERB8yClOZ-58">
          <mxGeometry x="19.230769230769234" y="20" width="211.53846153846155" height="30" as="geometry" />
        </mxCell>
        <mxCell id="APIBFzFLJotERB8yClOZ-24" value="" style="edgeStyle=orthogonalEdgeStyle;rounded=0;orthogonalLoop=1;jettySize=auto;html=1;" edge="1" parent="1" source="APIBFzFLJotERB8yClOZ-20" target="erJEm5I90C8Fni9JRruV-2">
          <mxGeometry relative="1" as="geometry" />
        </mxCell>
        <mxCell id="Aynom5pPyhfbIul4iq7L-2" value="" style="rounded=1;whiteSpace=wrap;html=1;" parent="1" vertex="1">
          <mxGeometry x="140" y="200" width="140" height="310" as="geometry" />
        </mxCell>
        <mxCell id="Aynom5pPyhfbIul4iq7L-6" value="React + NextJS SSG/SSR" style="rounded=1;whiteSpace=wrap;html=1;" parent="1" vertex="1">
          <mxGeometry x="155" y="260" width="110" height="40" as="geometry" />
        </mxCell>
        <mxCell id="Aynom5pPyhfbIul4iq7L-7" value="Fixture and Result" style="rounded=1;whiteSpace=wrap;html=1;" parent="1" vertex="1">
          <mxGeometry x="155" y="220" width="110" height="30" as="geometry" />
        </mxCell>
        <mxCell id="APIBFzFLJotERB8yClOZ-25" value="NodeJS + Express" style="rounded=1;whiteSpace=wrap;html=1;" vertex="1" parent="1">
          <mxGeometry x="155" y="310" width="110" height="40" as="geometry" />
        </mxCell>
        <mxCell id="APIBFzFLJotERB8yClOZ-26" value="Redis" style="rounded=1;whiteSpace=wrap;html=1;" vertex="1" parent="1">
          <mxGeometry x="155" y="365" width="110" height="40" as="geometry" />
        </mxCell>
        <mxCell id="APIBFzFLJotERB8yClOZ-27" value="MongoDB&lt;div&gt;DynamoDB&amp;nbsp;&lt;/div&gt;" style="rounded=1;whiteSpace=wrap;html=1;" vertex="1" parent="1">
          <mxGeometry x="155" y="420" width="110" height="70" as="geometry" />
        </mxCell>
        <mxCell id="APIBFzFLJotERB8yClOZ-29" style="edgeStyle=orthogonalEdgeStyle;rounded=0;orthogonalLoop=1;jettySize=auto;html=1;" edge="1" parent="1" source="APIBFzFLJotERB8yClOZ-28">
          <mxGeometry relative="1" as="geometry">
            <mxPoint x="140" y="235" as="targetPoint" />
          </mxGeometry>
        </mxCell>
        <mxCell id="APIBFzFLJotERB8yClOZ-28" value="Team handling Fixture and Result experience" style="text;html=1;align=center;verticalAlign=middle;whiteSpace=wrap;rounded=0;" vertex="1" parent="1">
          <mxGeometry x="-40" y="220" width="150" height="30" as="geometry" />
        </mxCell>
        <mxCell id="APIBFzFLJotERB8yClOZ-37" style="edgeStyle=orthogonalEdgeStyle;rounded=0;orthogonalLoop=1;jettySize=auto;html=1;entryX=0;entryY=0.258;entryDx=0;entryDy=0;entryPerimeter=0;" edge="1" parent="1" source="APIBFzFLJotERB8yClOZ-31" target="Aynom5pPyhfbIul4iq7L-2">
          <mxGeometry relative="1" as="geometry" />
        </mxCell>
        <mxCell id="APIBFzFLJotERB8yClOZ-31" value="Frontend Stack" style="text;html=1;align=center;verticalAlign=middle;whiteSpace=wrap;rounded=0;" vertex="1" parent="1">
          <mxGeometry x="-50" y="265" width="150" height="30" as="geometry" />
        </mxCell>
        <mxCell id="APIBFzFLJotERB8yClOZ-32" value="Dynamic Rendering" style="text;html=1;align=center;verticalAlign=middle;whiteSpace=wrap;rounded=0;" vertex="1" parent="1">
          <mxGeometry x="-40" y="315" width="150" height="30" as="geometry" />
        </mxCell>
        <mxCell id="APIBFzFLJotERB8yClOZ-33" value="Data Caching" style="text;html=1;align=center;verticalAlign=middle;whiteSpace=wrap;rounded=0;" vertex="1" parent="1">
          <mxGeometry x="-40" y="365" width="150" height="30" as="geometry" />
        </mxCell>
        <mxCell id="APIBFzFLJotERB8yClOZ-34" value="Database Layer - Semi Structured" style="text;html=1;align=center;verticalAlign=middle;whiteSpace=wrap;rounded=0;" vertex="1" parent="1">
          <mxGeometry x="-40" y="440" width="150" height="30" as="geometry" />
        </mxCell>
        <mxCell id="APIBFzFLJotERB8yClOZ-41" style="edgeStyle=orthogonalEdgeStyle;rounded=0;orthogonalLoop=1;jettySize=auto;html=1;entryX=-0.003;entryY=0.419;entryDx=0;entryDy=0;entryPerimeter=0;" edge="1" parent="1" source="APIBFzFLJotERB8yClOZ-32" target="Aynom5pPyhfbIul4iq7L-2">
          <mxGeometry relative="1" as="geometry" />
        </mxCell>
        <mxCell id="APIBFzFLJotERB8yClOZ-42" style="edgeStyle=orthogonalEdgeStyle;rounded=0;orthogonalLoop=1;jettySize=auto;html=1;entryX=0;entryY=0.581;entryDx=0;entryDy=0;entryPerimeter=0;" edge="1" parent="1" source="APIBFzFLJotERB8yClOZ-33" target="Aynom5pPyhfbIul4iq7L-2">
          <mxGeometry relative="1" as="geometry" />
        </mxCell>
        <mxCell id="APIBFzFLJotERB8yClOZ-43" style="edgeStyle=orthogonalEdgeStyle;rounded=0;orthogonalLoop=1;jettySize=auto;html=1;entryX=0.002;entryY=0.825;entryDx=0;entryDy=0;entryPerimeter=0;" edge="1" parent="1" source="APIBFzFLJotERB8yClOZ-34" target="Aynom5pPyhfbIul4iq7L-2">
          <mxGeometry relative="1" as="geometry" />
        </mxCell>
        <mxCell id="APIBFzFLJotERB8yClOZ-50" value="" style="group" vertex="1" connectable="0" parent="1">
          <mxGeometry x="340" y="200" width="140" height="310" as="geometry" />
        </mxCell>
        <mxCell id="APIBFzFLJotERB8yClOZ-44" value="" style="rounded=1;whiteSpace=wrap;html=1;" vertex="1" parent="APIBFzFLJotERB8yClOZ-50">
          <mxGeometry width="140" height="310" as="geometry" />
        </mxCell>
        <mxCell id="APIBFzFLJotERB8yClOZ-45" value="React + NextJS SSG/SSR" style="rounded=1;whiteSpace=wrap;html=1;" vertex="1" parent="APIBFzFLJotERB8yClOZ-50">
          <mxGeometry x="15" y="60" width="110" height="40" as="geometry" />
        </mxCell>
        <mxCell id="APIBFzFLJotERB8yClOZ-46" value="Ticketing/Hospitality" style="rounded=1;whiteSpace=wrap;html=1;" vertex="1" parent="APIBFzFLJotERB8yClOZ-50">
          <mxGeometry x="15" y="20" width="110" height="30" as="geometry" />
        </mxCell>
        <mxCell id="APIBFzFLJotERB8yClOZ-47" value="NodeJS + Express" style="rounded=1;whiteSpace=wrap;html=1;" vertex="1" parent="APIBFzFLJotERB8yClOZ-50">
          <mxGeometry x="15" y="110" width="110" height="40" as="geometry" />
        </mxCell>
        <mxCell id="APIBFzFLJotERB8yClOZ-48" value="Redis&amp;nbsp;" style="rounded=1;whiteSpace=wrap;html=1;" vertex="1" parent="APIBFzFLJotERB8yClOZ-50">
          <mxGeometry x="15" y="165" width="110" height="40" as="geometry" />
        </mxCell>
        <mxCell id="APIBFzFLJotERB8yClOZ-49" value="MongoDB&lt;div&gt;DynamoDB&amp;nbsp;&lt;/div&gt;" style="rounded=1;whiteSpace=wrap;html=1;" vertex="1" parent="APIBFzFLJotERB8yClOZ-50">
          <mxGeometry x="15" y="220" width="110" height="70" as="geometry" />
        </mxCell>
        <mxCell id="APIBFzFLJotERB8yClOZ-51" value="" style="group" vertex="1" connectable="0" parent="1">
          <mxGeometry x="535" y="200" width="140" height="310" as="geometry" />
        </mxCell>
        <mxCell id="APIBFzFLJotERB8yClOZ-52" value="" style="rounded=1;whiteSpace=wrap;html=1;" vertex="1" parent="APIBFzFLJotERB8yClOZ-51">
          <mxGeometry width="140" height="310" as="geometry" />
        </mxCell>
        <mxCell id="APIBFzFLJotERB8yClOZ-53" value="React + NextJS SSG/SSR" style="rounded=1;whiteSpace=wrap;html=1;" vertex="1" parent="APIBFzFLJotERB8yClOZ-51">
          <mxGeometry x="15" y="60" width="110" height="40" as="geometry" />
        </mxCell>
        <mxCell id="APIBFzFLJotERB8yClOZ-54" value="Fan Enagement" style="rounded=1;whiteSpace=wrap;html=1;" vertex="1" parent="APIBFzFLJotERB8yClOZ-51">
          <mxGeometry x="15" y="20" width="110" height="30" as="geometry" />
        </mxCell>
        <mxCell id="APIBFzFLJotERB8yClOZ-55" value="NodeJS + Express" style="rounded=1;whiteSpace=wrap;html=1;" vertex="1" parent="APIBFzFLJotERB8yClOZ-51">
          <mxGeometry x="15" y="110" width="110" height="40" as="geometry" />
        </mxCell>
        <mxCell id="APIBFzFLJotERB8yClOZ-56" value="Redis&amp;nbsp;" style="rounded=1;whiteSpace=wrap;html=1;" vertex="1" parent="APIBFzFLJotERB8yClOZ-51">
          <mxGeometry x="15" y="165" width="110" height="40" as="geometry" />
        </mxCell>
        <mxCell id="APIBFzFLJotERB8yClOZ-57" value="MongoDB&lt;div&gt;DynamoDB&amp;nbsp;&lt;/div&gt;" style="rounded=1;whiteSpace=wrap;html=1;" vertex="1" parent="APIBFzFLJotERB8yClOZ-51">
          <mxGeometry x="15" y="220" width="110" height="70" as="geometry" />
        </mxCell>
      </root>
    </mxGraphModel>
  </diagram>
  <diagram name="e2e" id="It8hK05ZWKd_Wr_jfHZ3">
    <mxGraphModel dx="10100" dy="6730" grid="1" gridSize="10" guides="1" tooltips="1" connect="1" arrows="1" fold="1" page="1" pageScale="1" pageWidth="850" pageHeight="1100" math="0" shadow="0">
      <root>
        <mxCell id="0" />
        <mxCell id="1" parent="0" />
      </root>
    </mxGraphModel>
  </diagram>
  <diagram id="b44u08KMCwDgETaDsaA1" name="Page-2">
    <mxGraphModel dx="1010" dy="673" grid="1" gridSize="10" guides="1" tooltips="1" connect="1" arrows="1" fold="1" page="1" pageScale="1" pageWidth="850" pageHeight="1100" math="0" shadow="0">
      <root>
        <mxCell id="0" />
        <mxCell id="1" parent="0" />
      </root>
    </mxGraphModel>
  </diagram>
</mxfile>
